<svg width="16" height="16" viewBox="0 0 16 16" fill="none" xmlns="http://www.w3.org/2000/svg">
<path d="M6.96589 5.56871V6.66156H6.16589V7.99728H6.96589V11.9678H8.61037V7.99728H9.71351C9.71351 7.99728 9.81751 7.3568 9.86751 6.65594H8.61665V5.74328C8.61665 5.60594 8.79608 5.42261 8.9738 5.42261H9.86904V4.03137H8.65085C6.92542 4.03137 6.96589 5.36871 6.96589 5.56871Z" fill="#CCCCCC"/>
<path d="M3.23939 1.65069C2.81844 1.65069 2.41463 1.81793 2.11701 2.11554C1.8193 2.41326 1.65206 2.81697 1.65206 3.23793V12.7617C1.65206 13.1828 1.8193 13.5865 2.11701 13.8842C2.41463 14.1818 2.81844 14.3491 3.23939 14.3491H12.7632C13.1842 14.3491 13.5879 14.1818 13.8856 13.8842C14.1832 13.5865 14.3504 13.1828 14.3504 12.7617V3.23793C14.3504 2.81697 14.1832 2.41326 13.8856 2.11554C13.5879 1.81793 13.1842 1.65069 12.7632 1.65069H3.23939ZM3.23939 0.0633545H12.7632C13.6051 0.0633545 14.4126 0.397831 15.008 0.993164C15.6033 1.5885 15.9378 2.39602 15.9378 3.23793V12.7617C15.9378 13.6037 15.6033 14.4112 15.008 15.0066C14.4126 15.6019 13.6051 15.9364 12.7632 15.9364H3.23939C2.39739 15.9364 1.58996 15.6019 0.994629 15.0066C0.399296 14.4112 0.0648193 13.6037 0.0648193 12.7617V3.23793C0.0648193 2.39602 0.399296 1.5885 0.994629 0.993164C1.58996 0.397831 2.39739 0.0633545 3.23939 0.0633545Z" fill="#CCCCCC"/>
</svg>
