<svg width="16" height="16" viewBox="0 0 16 16" fill="none" xmlns="http://www.w3.org/2000/svg">
<path d="M11.9366 5.75163C11.6445 5.87858 11.331 5.96591 11.0016 6.00401C11.3382 5.80553 11.5953 5.49125 11.7175 5.11744C11.3969 5.30439 11.047 5.43582 10.6826 5.50639C10.5293 5.34572 10.345 5.21791 10.1407 5.13086C9.93638 5.04382 9.71657 4.99934 9.49448 5.00001C8.59533 5.00001 7.86676 5.71829 7.86676 6.60315C7.86676 6.72858 7.88105 6.85077 7.90876 6.96829C7.26381 6.93763 6.63229 6.77286 6.05457 6.48458C5.47676 6.1962 4.96543 5.79067 4.55324 5.29363C4.40838 5.53744 4.33219 5.81572 4.33257 6.09925C4.33257 6.65477 4.62067 7.14686 5.05714 7.43334C4.79876 7.42525 4.546 7.35648 4.31905 7.23258V7.25239C4.32152 7.62496 4.45305 7.98525 4.69124 8.27172C4.92943 8.55829 5.25952 8.75334 5.62543 8.82382C5.38524 8.88734 5.13391 8.89658 4.88971 8.85077C4.99619 9.17134 5.19981 9.45077 5.47229 9.65029C5.74476 9.84982 6.07267 9.95963 6.41038 9.96429C5.83095 10.4108 5.11962 10.652 4.3881 10.65C4.25714 10.65 4.12781 10.6421 4 10.6278C4.74648 11.1003 5.6119 11.3505 6.49533 11.3492C9.49057 11.3492 11.1278 8.90639 11.1278 6.78734L11.1223 6.57934C11.4416 6.35496 11.7175 6.07448 11.9366 5.75163Z" fill="#CCCCCC"/>
<path d="M3.17457 1.58733C2.75362 1.58733 2.34981 1.75457 2.05219 2.05219C1.75448 2.3499 1.58724 2.75362 1.58724 3.17457V12.6984C1.58724 13.1194 1.75448 13.5231 2.05219 13.8209C2.34981 14.1185 2.75362 14.2857 3.17457 14.2857H12.6984C13.1193 14.2857 13.523 14.1185 13.8208 13.8209C14.1184 13.5231 14.2856 13.1194 14.2856 12.6984V3.17457C14.2856 2.75362 14.1184 2.3499 13.8208 2.05219C13.523 1.75457 13.1193 1.58733 12.6984 1.58733H3.17457ZM3.17457 0H12.6984C13.5403 0 14.3478 0.334476 14.9431 0.92981C15.5385 1.52514 15.873 2.33267 15.873 3.17457V12.6984C15.873 13.5404 15.5385 14.3478 14.9431 14.9432C14.3478 15.5386 13.5403 15.873 12.6984 15.873H3.17457C2.33257 15.873 1.52514 15.5386 0.92981 14.9432C0.334476 14.3478 0 13.5404 0 12.6984V3.17457C0 2.33267 0.334476 1.52514 0.92981 0.92981C1.52514 0.334476 2.33257 0 3.17457 0Z" fill="#CCCCCC"/>
</svg>
