<svg width="17" height="17" viewBox="0 0 17 17" fill="none" xmlns="http://www.w3.org/2000/svg">
<path d="M12.1428 9.01014V12.003H10.4081V9.21014C10.4081 8.50909 10.157 8.03061 9.52894 8.03061C9.0497 8.03061 8.76389 8.3528 8.63837 8.66528C8.59303 8.77699 8.58094 8.93242 8.58094 9.08785V12.003H6.84532C6.84532 12.003 6.86884 7.27375 6.84532 6.78395H8.58094V7.52309L8.56961 7.54004H8.58094V7.52385C8.8117 7.16766 9.22285 6.6609 10.1449 6.6609C11.2864 6.6609 12.1428 7.40728 12.1428 9.01014ZM5.02961 4.26709C4.43618 4.26709 4.04761 4.65728 4.04761 5.1689C4.04761 5.6708 4.42484 6.07157 5.00694 6.07157H5.01827C5.6238 6.07157 6.00018 5.67004 6.00018 5.1689C5.98884 4.65728 5.6238 4.26709 5.02961 4.26709ZM4.15037 12.003H5.88599V6.78395H4.15037V12.003Z" fill="#CCCCCC"/>
<path d="M3.23809 1.61905C2.80867 1.61905 2.39686 1.78962 2.09324 2.09324C1.78962 2.39686 1.61905 2.80867 1.61905 3.23809V12.9524C1.61905 13.3817 1.78962 13.7935 2.09324 14.0972C2.39686 14.4009 2.80867 14.5714 3.23809 14.5714H12.9524C13.3818 14.5714 13.7936 14.4009 14.0972 14.0972C14.4009 13.7935 14.5714 13.3817 14.5714 12.9524V3.23809C14.5714 2.80867 14.4009 2.39686 14.0972 2.09324C13.7936 1.78962 13.3818 1.61905 12.9524 1.61905H3.23809ZM3.23809 0H12.9524C13.8111 0 14.6348 0.341143 15.2421 0.948381C15.8493 1.55571 16.1905 2.37933 16.1905 3.23809V12.9524C16.1905 13.8111 15.8493 14.6348 15.2421 15.242C14.6348 15.8493 13.8111 16.1905 12.9524 16.1905H3.23809C2.37933 16.1905 1.55571 15.8493 0.948381 15.242C0.341143 14.6348 0 13.8111 0 12.9524V3.23809C0 2.37933 0.341143 1.55571 0.948381 0.948381C1.55571 0.341143 2.37933 0 3.23809 0Z" fill="#CCCCCC"/>
</svg>
