<svg width="15" height="15" viewBox="0 0 15 15" fill="none" xmlns="http://www.w3.org/2000/svg">
<path d="M7.43361 3.62027C5.32237 3.62027 3.61846 5.32418 3.61846 7.43542C3.61846 9.54665 5.32237 11.2506 7.43361 11.2506C9.54484 11.2506 11.2487 9.54665 11.2487 7.43542C11.2487 5.32418 9.54484 3.62027 7.43361 3.62027ZM7.43361 9.91494C6.06827 9.91494 4.95408 8.80075 4.95408 7.43542C4.95408 6.07008 6.06827 4.95589 7.43361 4.95589C8.79894 4.95589 9.91313 6.07008 9.91313 7.43542C9.91313 8.80075 8.79894 9.91494 7.43361 9.91494ZM11.4049 2.57494C10.912 2.57494 10.514 2.97294 10.514 3.46589C10.514 3.95884 10.912 4.35694 11.4049 4.35694C11.8979 4.35694 12.296 3.96075 12.296 3.46589C12.2961 3.34884 12.2731 3.23294 12.2285 3.12475C12.1837 3.01665 12.1181 2.91837 12.0353 2.83561C11.9526 2.75275 11.8543 2.68713 11.7461 2.64246C11.6379 2.5977 11.522 2.57475 11.4049 2.57494ZM14.8704 7.43542C14.8704 6.40865 14.8797 5.39113 14.822 4.36618C14.7644 3.1757 14.4927 2.11923 13.6222 1.24865C12.7498 0.376273 11.6951 0.106559 10.5047 0.0488447C9.47789 -0.00877434 8.46037 0.000558809 7.43541 0.000558809C6.40865 0.000558809 5.39122 -0.00877434 4.36627 0.0488447C3.17579 0.106559 2.11922 0.378083 1.24865 1.24865C0.376272 2.12104 0.106558 3.1757 0.0489387 4.36618C-0.00877563 5.39303 0.000557397 6.41046 0.000557397 7.43542C0.000557397 8.46037 -0.00877563 9.4797 0.0489387 10.5047C0.106558 11.6951 0.378177 12.7516 1.24865 13.6222C2.12113 14.4946 3.17579 14.7643 4.36627 14.822C5.39303 14.8796 6.41056 14.8703 7.43541 14.8703C8.46227 14.8703 9.4797 14.8796 10.5047 14.822C11.6951 14.7643 12.7517 14.4928 13.6222 13.6222C14.4947 12.7498 14.7644 11.6951 14.822 10.5047C14.8815 9.4797 14.8704 8.46218 14.8704 7.43542ZM13.2334 11.8216C13.0977 12.1601 12.934 12.4131 12.6717 12.6735C12.4094 12.9358 12.1583 13.0995 11.8198 13.2352C10.8413 13.6241 8.51808 13.5367 7.43361 13.5367C6.34913 13.5367 4.02399 13.6241 3.0456 13.2371C2.70703 13.1013 2.45408 12.9376 2.19361 12.6754C1.93132 12.4131 1.7677 12.162 1.63189 11.8234C1.24494 10.8431 1.33237 8.51989 1.33237 7.43542C1.33237 6.35094 1.24494 4.0258 1.63189 3.04742C1.7677 2.70885 1.93132 2.45589 2.19361 2.19542C2.45589 1.93504 2.70703 1.76951 3.0456 1.6337C4.02399 1.24675 6.34913 1.33418 7.43361 1.33418C8.51808 1.33418 10.8432 1.24675 11.8216 1.6337C12.1602 1.76951 12.4131 1.93323 12.6735 2.19542C12.9358 2.4577 13.0995 2.70885 13.2353 3.04742C13.6222 4.0258 13.5347 6.35094 13.5347 7.43542C13.5347 8.51989 13.6222 10.8431 13.2334 11.8216Z" fill="#CCCCCC"/>
</svg>
